ffmpeg started on 2025-05-13 at 10:28:58
Report written to "D:\Convert\FFMetrics\reports\ssim_report-6.txt"
Log level: 32
Command line:
ffmpeg -hide_banner -nostdin -i "G:\\\xc0\xed\xe8\xec\xe5\\\xce\xed\xe3\xee\xe8\xed\xe3\xe8\\!_35_\xcb\xe5\xf2\xee_2024\\DreamCast-1\\\xd3 \xec\xee\xe5\xe9 \xe6\xe5\xed\xfb \xed\xe5\xf2 \xfd\xec\xee\xf6\xe8\xe9\\[DC] Boku no Tsuma wa Kanjou ga Nai - 11_Telegram_HEVC.mkv" -i "G:\\\xc0\xed\xe8\xec\xe5\\\xce\xed\xe3\xee\xe8\xed\xe3\xe8\\!_35_\xcb\xe5\xf2\xee_2024\\DreamCast-1\\\xd3 \xec\xee\xe5\xe9 \xe6\xe5\xed\xfb \xed\xe5\xf2 \xfd\xec\xee\xf6\xe8\xe9\\[DC] Boku no Tsuma wa Kanjou ga Nai - 11_Telegram.mp4" -lavfi "[0:v]settb=AVTB,setpts=PTS-STARTPTS,format=pix_fmts=yuv420p10,fps=24000/1001,scale=1920:1080:flags=bicubic[main];[1:v]settb=AVTB,setpts=PTS-STARTPTS,format=pix_fmts=yuv420p,fps=24000/1001,scale=1920:1080:flags=bicubic[ref];[main][ref]ssim=eof_action=endall:stats_file='D\\:/Convert/FFMetrics/logs/ssim_logfile-6.txt'" -f null -
Input #0, matroska,webm, from 'G:\Аниме\Онгоинги\!_35_Лето_2024\DreamCast-1\У моей жены нет эмоций\[DC] Boku no Tsuma wa Kanjou ga Nai - 11_Telegram_HEVC.mkv':
  Metadata:
    COMPATIBLE_BRANDS: isomiso2avc1mp41
    MAJOR_BRAND     : isom
    MINOR_VERSION   : 512
    ENCODER         : Lavf61.7.100
  Duration: 00:23:46.65, start: -0.021000, bitrate: 945 kb/s
  Stream #0:0: Video: hevc (Main 10), yuv420p10le(tv, bt709, progressive), 1920x1080 [SAR 1:1 DAR 16:9], 23.98 fps, 23.98 tbr, 1k tbn (default)
      Metadata:
        HANDLER_NAME    : VideoHandler
        VENDOR_ID       : [0][0][0][0]
        ENCODER         : Lavc61.19.100 libx265
        BPS             : 748349
        DURATION        : 00:23:46.549708333
        NUMBER_OF_FRAMES: 34203
        NUMBER_OF_BYTES : 133444620
        _STATISTICS_WRITING_APP: mkvpropedit v66.0.0 ('Josie') 64-bit
        _STATISTICS_WRITING_DATE_UTC: 2025-05-11 13:47:28
        _STATISTICS_TAGS: BPS DURATION NUMBER_OF_FRAMES NUMBER_OF_BYTES
  Stream #0:1: Audio: aac (LC), 48000 Hz, stereo, fltp (default)
      Metadata:
        HANDLER_NAME    : SoundHandler
        VENDOR_ID       : [0][0][0][0]
        ENCODER         : Lavc61.19.100 aac
        BPS             : 193363
        DURATION        : 00:23:46.645000000
        NUMBER_OF_FRAMES: 66875
        NUMBER_OF_BYTES : 34482710
        _STATISTICS_WRITING_APP: mkvpropedit v66.0.0 ('Josie') 64-bit
        _STATISTICS_WRITING_DATE_UTC: 2025-05-11 13:47:28
        _STATISTICS_TAGS: BPS DURATION NUMBER_OF_FRAMES NUMBER_OF_BYTES
Input #1, mov,mp4,m4a,3gp,3g2,mj2, from 'G:\Аниме\Онгоинги\!_35_Лето_2024\DreamCast-1\У моей жены нет эмоций\[DC] Boku no Tsuma wa Kanjou ga Nai - 11_Telegram.mp4':
  Metadata:
    major_brand     : isom
    minor_version   : 512
    compatible_brands: isomiso2avc1mp41
    encoder         : Lavf60.16.100
  Duration: 00:23:46.62, start: 0.000000, bitrate: 3858 kb/s
  Stream #1:0[0x1](und): Video: h264 (High) (avc1 / 0x31637661), yuv420p(tv, bt709, progressive), 1920x1080 [SAR 1:1 DAR 16:9], 3711 kb/s, 23.98 fps, 23.98 tbr, 24k tbn (default)
      Metadata:
        handler_name    : VideoHandler
        vendor_id       : [0][0][0][0]
        encoder         : Lavc60.31.102 h264_qsv
  Stream #1:1[0x2](und): Audio: aac (HE-AACv2) (mp4a / 0x6134706D), 48000 Hz, stereo, fltp, 144 kb/s (default)
      Metadata:
        handler_name    : SoundHandler
        vendor_id       : [0][0][0][0]
Stream mapping:
  Stream #0:0 (hevc) -> settb:default
  Stream #1:0 (h264) -> settb:default
  ssim:default -> Stream #0:0 (wrapped_avframe)
  Stream #0:1 -> #0:1 (aac (native) -> pcm_s16le (native))
Output #0, null, to 'pipe:':
  Metadata:
    COMPATIBLE_BRANDS: isomiso2avc1mp41
    MAJOR_BRAND     : isom
    MINOR_VERSION   : 512
    encoder         : Lavf61.7.100
  Stream #0:0: Video: wrapped_avframe, yuv420p10le(tv, bt709, progressive), 1920x1080 [SAR 1:1 DAR 16:9], q=2-31, 200 kb/s, 23.98 fps, 23.98 tbn
      Metadata:
        encoder         : Lavc61.19.100 wrapped_avframe
  Stream #0:1: Audio: pcm_s16le, 48000 Hz, stereo, s16, 1536 kb/s (default)
      Metadata:
        HANDLER_NAME    : SoundHandler
        VENDOR_ID       : [0][0][0][0]
        _STATISTICS_TAGS: BPS DURATION NUMBER_OF_FRAMES NUMBER_OF_BYTES
        BPS             : 193363
        DURATION        : 00:23:46.645000000
        NUMBER_OF_FRAMES: 66875
        NUMBER_OF_BYTES : 34482710
        _STATISTICS_WRITING_APP: mkvpropedit v66.0.0 ('Josie') 64-bit
        _STATISTICS_WRITING_DATE_UTC: 2025-05-11 13:47:28
        encoder         : Lavc61.19.100 pcm_s16le
frame=  170 fps=0.0 q=-0.0 size=N/A time=00:00:07.09 bitrate=N/A speed=13.8x    frame=  402 fps=388 q=-0.0 size=N/A time=00:00:16.76 bitrate=N/A speed=16.2x    frame=  655 fps=421 q=-0.0 size=N/A time=00:00:27.31 bitrate=N/A speed=17.6x    frame=  910 fps=441 q=-0.0 size=N/A time=00:00:37.95 bitrate=N/A speed=18.4x    frame= 1169 fps=452 q=-0.0 size=N/A time=00:00:48.75 bitrate=N/A speed=18.9x    frame= 1431 fps=462 q=-0.0 size=N/A time=00:00:59.68 bitrate=N/A speed=19.3x    frame= 1709 fps=472 q=-0.0 size=N/A time=00:01:11.27 bitrate=N/A speed=19.7x    frame= 1966 fps=475 q=-0.0 size=N/A time=00:01:21.99 bitrate=N/A speed=19.8x    frame= 2205 fps=475 q=-0.0 size=N/A time=00:01:31.96 bitrate=N/A speed=19.8x    frame= 2411 fps=467 q=-0.0 size=N/A time=00:01:40.55 bitrate=N/A speed=19.5x    frame= 2641 fps=465 q=-0.0 size=N/A time=00:01:50.15 bitrate=N/A speed=19.4x    frame= 2853 fps=459 q=-0.0 size=N/A time=00:01:58.99 bitrate=N/A speed=19.2x    frame= 3035 fps=451 q=-0.0 size=N/A time=00:02:06.58 bitrate=N/A speed=18.8x    frame= 3224 fps=446 q=-0.0 size=N/A time=00:02:14.46 bitrate=N/A speed=18.6x    frame= 3374 fps=435 q=-0.0 size=N/A time=00:02:20.72 bitrate=N/A speed=18.1x    frame= 3599 fps=435 q=-0.0 size=N/A time=00:02:30.10 bitrate=N/A speed=18.2x    frame= 3811 fps=434 q=-0.0 size=N/A time=00:02:38.95 bitrate=N/A speed=18.1x    frame= 4023 fps=432 q=-0.0 size=N/A time=00:02:47.79 bitrate=N/A speed=  18x    frame= 4221 fps=430 q=-0.0 size=N/A time=00:02:56.05 bitrate=N/A speed=17.9x    frame= 4489 fps=435 q=-0.0 size=N/A time=00:03:07.22 bitrate=N/A speed=18.1x    frame= 4759 fps=438 q=-0.0 size=N/A time=00:03:18.48 bitrate=N/A speed=18.3x    frame= 5027 fps=442 q=-0.0 size=N/A time=00:03:29.66 bitrate=N/A speed=18.5x    frame= 5303 fps=446 q=-0.0 size=N/A time=00:03:41.17 bitrate=N/A speed=18.6x    frame= 5563 fps=449 q=-0.0 size=N/A time=00:03:52.02 bitrate=N/A speed=18.7x    frame= 5795 fps=449 q=-0.0 size=N/A time=00:04:01.69 bitrate=N/A speed=18.7x    frame= 6061 fps=451 q=-0.0 size=N/A time=00:04:12.79 bitrate=N/A speed=18.8x    frame= 6298 fps=452 q=-0.0 size=N/A time=00:04:22.67 bitrate=N/A speed=18.8x    frame= 6551 fps=453 q=-0.0 size=N/A time=00:04:33.23 bitrate=N/A speed=18.9x    frame= 6820 fps=456 q=-0.0 size=N/A time=00:04:44.45 bitrate=N/A speed=  19x    frame= 7082 fps=457 q=-0.0 size=N/A time=00:04:55.37 bitrate=N/A speed=19.1x    frame= 7334 fps=458 q=-0.0 size=N/A time=00:05:05.88 bitrate=N/A speed=19.1x    frame= 7592 fps=459 q=-0.0 size=N/A time=00:05:16.64 bitrate=N/A speed=19.2x    frame= 7799 fps=458 q=-0.0 size=N/A time=00:05:25.28 bitrate=N/A speed=19.1x    frame= 8031 fps=457 q=-0.0 size=N/A time=00:05:34.95 bitrate=N/A speed=19.1x    frame= 8305 fps=460 q=-0.0 size=N/A time=00:05:46.38 bitrate=N/A speed=19.2x    frame= 8571 fps=461 q=-0.0 size=N/A time=00:05:57.48 bitrate=N/A speed=19.2x    frame= 8836 fps=463 q=-0.0 size=N/A time=00:06:08.53 bitrate=N/A speed=19.3x    frame= 9108 fps=464 q=-0.0 size=N/A time=00:06:19.87 bitrate=N/A speed=19.4x    frame= 9372 fps=466 q=-0.0 size=N/A time=00:06:30.89 bitrate=N/A speed=19.4x    frame= 9635 fps=467 q=-0.0 size=N/A time=00:06:41.85 bitrate=N/A speed=19.5x    frame= 9884 fps=467 q=-0.0 size=N/A time=00:06:52.24 bitrate=N/A speed=19.5x    frame=10122 fps=467 q=-0.0 size=N/A time=00:07:02.17 bitrate=N/A speed=19.5x    frame=10383 fps=468 q=-0.0 size=N/A time=00:07:13.05 bitrate=N/A speed=19.5x    frame=10662 fps=469 q=-0.0 size=N/A time=00:07:24.69 bitrate=N/A speed=19.6x    frame=10919 fps=470 q=-0.0 size=N/A time=00:07:35.41 bitrate=N/A speed=19.6x    frame=11190 fps=471 q=-0.0 size=N/A time=00:07:46.71 bitrate=N/A speed=19.7x    frame=11439 fps=472 q=-0.0 size=N/A time=00:07:57.10 bitrate=N/A speed=19.7x    frame=11681 fps=472 q=-0.0 size=N/A time=00:08:07.19 bitrate=N/A speed=19.7x    frame=11946 fps=472 q=-0.0 size=N/A time=00:08:18.24 bitrate=N/A speed=19.7x    frame=12208 fps=473 q=-0.0 size=N/A time=00:08:29.17 bitrate=N/A speed=19.7x    frame=12466 fps=474 q=-0.0 size=N/A time=00:08:39.93 bitrate=N/A speed=19.8x    frame=12709 fps=474 q=-0.0 size=N/A time=00:08:50.07 bitrate=N/A speed=19.8x    frame=12947 fps=473 q=-0.0 size=N/A time=00:08:59.99 bitrate=N/A speed=19.7x    frame=13119 fps=471 q=-0.0 size=N/A time=00:09:07.17 bitrate=N/A speed=19.6x    frame=13331 fps=470 q=-0.0 size=N/A time=00:09:16.01 bitrate=N/A speed=19.6x    frame=13584 fps=470 q=-0.0 size=N/A time=00:09:26.56 bitrate=N/A speed=19.6x    frame=13811 fps=470 q=-0.0 size=N/A time=00:09:36.03 bitrate=N/A speed=19.6x    frame=14055 fps=470 q=-0.0 size=N/A time=00:09:46.21 bitrate=N/A speed=19.6x    frame=14332 fps=471 q=-0.0 size=N/A time=00:09:57.76 bitrate=N/A speed=19.6x    frame=14577 fps=471 q=-0.0 size=N/A time=00:10:07.98 bitrate=N/A speed=19.6x    frame=14825 fps=471 q=-0.0 size=N/A time=00:10:18.32 bitrate=N/A speed=19.6x    frame=15043 fps=470 q=-0.0 size=N/A time=00:10:27.41 bitrate=N/A speed=19.6x    frame=15287 fps=470 q=-0.0 size=N/A time=00:10:37.59 bitrate=N/A speed=19.6x    frame=15546 fps=471 q=-0.0 size=N/A time=00:10:48.39 bitrate=N/A speed=19.6x    frame=15813 fps=471 q=-0.0 size=N/A time=00:10:59.53 bitrate=N/A speed=19.7x    frame=16055 fps=472 q=-0.0 size=N/A time=00:11:09.62 bitrate=N/A speed=19.7x    frame=16323 fps=472 q=-0.0 size=N/A time=00:11:20.80 bitrate=N/A speed=19.7x    frame=16569 fps=472 q=-0.0 size=N/A time=00:11:31.06 bitrate=N/A speed=19.7x    frame=16837 fps=473 q=-0.0 size=N/A time=00:11:42.24 bitrate=N/A speed=19.7x    frame=17095 fps=473 q=-0.0 size=N/A time=00:11:53.00 bitrate=N/A speed=19.7x    frame=17344 fps=473 q=-0.0 size=N/A time=00:12:03.38 bitrate=N/A speed=19.7x    frame=17579 fps=473 q=-0.0 size=N/A time=00:12:13.19 bitrate=N/A speed=19.7x    frame=17834 fps=473 q=-0.0 size=N/A time=00:12:23.82 bitrate=N/A speed=19.7x    frame=18099 fps=474 q=-0.0 size=N/A time=00:12:34.87 bitrate=N/A speed=19.8x    frame=18356 fps=474 q=-0.0 size=N/A time=00:12:45.59 bitrate=N/A speed=19.8x    frame=18607 fps=474 q=-0.0 size=N/A time=00:12:56.06 bitrate=N/A speed=19.8x    frame=18872 fps=475 q=-0.0 size=N/A time=00:13:07.11 bitrate=N/A speed=19.8x    frame=19104 fps=475 q=-0.0 size=N/A time=00:13:16.79 bitrate=N/A speed=19.8x    frame=19369 fps=475 q=-0.0 size=N/A time=00:13:27.84 bitrate=N/A speed=19.8x    frame=19622 fps=475 q=-0.0 size=N/A time=00:13:38.40 bitrate=N/A speed=19.8x    frame=19895 fps=476 q=-0.0 size=N/A time=00:13:49.78 bitrate=N/A speed=19.8x    frame=20181 fps=477 q=-0.0 size=N/A time=00:14:01.71 bitrate=N/A speed=19.9x    frame=20417 fps=477 q=-0.0 size=N/A time=00:14:11.55 bitrate=N/A speed=19.9x    frame=20678 fps=477 q=-0.0 size=N/A time=00:14:22.44 bitrate=N/A speed=19.9x    frame=20945 fps=477 q=-0.0 size=N/A time=00:14:33.58 bitrate=N/A speed=19.9x    frame=21205 fps=478 q=-0.0 size=N/A time=00:14:44.42 bitrate=N/A speed=19.9x    frame=21473 fps=478 q=-0.0 size=N/A time=00:14:55.60 bitrate=N/A speed=19.9x    frame=21723 fps=478 q=-0.0 size=N/A time=00:15:06.03 bitrate=N/A speed=19.9x    frame=21995 fps=479 q=-0.0 size=N/A time=00:15:17.37 bitrate=N/A speed=  20x    frame=22238 fps=479 q=-0.0 size=N/A time=00:15:27.50 bitrate=N/A speed=  20x    frame=22499 fps=479 q=-0.0 size=N/A time=00:15:38.39 bitrate=N/A speed=  20x    frame=22774 fps=480 q=-0.0 size=N/A time=00:15:49.86 bitrate=N/A speed=  20x    frame=23026 fps=480 q=-0.0 size=N/A time=00:16:00.37 bitrate=N/A speed=  20x    frame=23295 fps=480 q=-0.0 size=N/A time=00:16:11.59 bitrate=N/A speed=  20x    frame=23557 fps=481 q=-0.0 size=N/A time=00:16:22.52 bitrate=N/A speed=  20x    frame=23835 fps=481 q=-0.0 size=N/A time=00:16:34.11 bitrate=N/A speed=20.1x    frame=24098 fps=481 q=-0.0 size=N/A time=00:16:45.08 bitrate=N/A speed=20.1x    frame=24356 fps=482 q=-0.0 size=N/A time=00:16:55.84 bitrate=N/A speed=20.1x    frame=24617 fps=482 q=-0.0 size=N/A time=00:17:06.73 bitrate=N/A speed=20.1x    frame=24871 fps=482 q=-0.0 size=N/A time=00:17:17.32 bitrate=N/A speed=20.1x    frame=25122 fps=482 q=-0.0 size=N/A time=00:17:27.79 bitrate=N/A speed=20.1x    frame=25395 fps=483 q=-0.0 size=N/A time=00:17:39.18 bitrate=N/A speed=20.1x    frame=25649 fps=483 q=-0.0 size=N/A time=00:17:49.77 bitrate=N/A speed=20.1x    frame=25909 fps=483 q=-0.0 size=N/A time=00:18:00.62 bitrate=N/A speed=20.1x    frame=26157 fps=483 q=-0.0 size=N/A time=00:18:10.96 bitrate=N/A speed=20.1x    frame=26406 fps=483 q=-0.0 size=N/A time=00:18:21.35 bitrate=N/A speed=20.1x    frame=26677 fps=483 q=-0.0 size=N/A time=00:18:32.65 bitrate=N/A speed=20.2x    frame=26921 fps=483 q=-0.0 size=N/A time=00:18:42.83 bitrate=N/A speed=20.1x    frame=27155 fps=483 q=-0.0 size=N/A time=00:18:52.58 bitrate=N/A speed=20.1x    frame=27414 fps=483 q=-0.0 size=N/A time=00:19:03.39 bitrate=N/A speed=20.1x    frame=27672 fps=483 q=-0.0 size=N/A time=00:19:14.15 bitrate=N/A speed=20.2x    frame=27919 fps=483 q=-0.0 size=N/A time=00:19:24.45 bitrate=N/A speed=20.1x    frame=28175 fps=483 q=-0.0 size=N/A time=00:19:35.13 bitrate=N/A speed=20.2x    frame=28434 fps=483 q=-0.0 size=N/A time=00:19:45.93 bitrate=N/A speed=20.2x    frame=28647 fps=483 q=-0.0 size=N/A time=00:19:54.81 bitrate=N/A speed=20.1x    frame=28909 fps=483 q=-0.0 size=N/A time=00:20:05.74 bitrate=N/A speed=20.1x    frame=29147 fps=483 q=-0.0 size=N/A time=00:20:15.67 bitrate=N/A speed=20.1x    frame=29416 fps=483 q=-0.0 size=N/A time=00:20:26.89 bitrate=N/A speed=20.2x    frame=29646 fps=483 q=-0.0 size=N/A time=00:20:36.48 bitrate=N/A speed=20.1x    frame=29925 fps=483 q=-0.0 size=N/A time=00:20:48.12 bitrate=N/A speed=20.2x    frame=30189 fps=484 q=-0.0 size=N/A time=00:20:59.13 bitrate=N/A speed=20.2x    frame=30442 fps=484 q=-0.0 size=N/A time=00:21:09.68 bitrate=N/A speed=20.2x    frame=30702 fps=484 q=-0.0 size=N/A time=00:21:20.52 bitrate=N/A speed=20.2x    frame=30945 fps=484 q=-0.0 size=N/A time=00:21:30.66 bitrate=N/A speed=20.2x    frame=31202 fps=484 q=-0.0 size=N/A time=00:21:41.38 bitrate=N/A speed=20.2x    frame=31463 fps=484 q=-0.0 size=N/A time=00:21:52.26 bitrate=N/A speed=20.2x    frame=31730 fps=484 q=-0.0 size=N/A time=00:22:03.40 bitrate=N/A speed=20.2x    frame=31982 fps=484 q=-0.0 size=N/A time=00:22:13.91 bitrate=N/A speed=20.2x    frame=32191 fps=484 q=-0.0 size=N/A time=00:22:22.63 bitrate=N/A speed=20.2x    frame=32429 fps=484 q=-0.0 size=N/A time=00:22:32.55 bitrate=N/A speed=20.2x    frame=32634 fps=483 q=-0.0 size=N/A time=00:22:41.10 bitrate=N/A speed=20.1x    frame=32814 fps=482 q=-0.0 size=N/A time=00:22:48.61 bitrate=N/A speed=20.1x    frame=33014 fps=481 q=-0.0 size=N/A time=00:22:56.95 bitrate=N/A speed=20.1x    frame=33222 fps=481 q=-0.0 size=N/A time=00:23:05.63 bitrate=N/A speed=  20x    frame=33416 fps=480 q=-0.0 size=N/A time=00:23:13.72 bitrate=N/A speed=  20x    frame=33614 fps=479 q=-0.0 size=N/A time=00:23:21.98 bitrate=N/A speed=  20x    frame=33831 fps=479 q=-0.0 size=N/A time=00:23:31.03 bitrate=N/A speed=  20x    frame=34071 fps=479 q=-0.0 size=N/A time=00:23:41.04 bitrate=N/A speed=  20x    [Parsed_ssim_10 @ 0000019605639f40] SSIM Y:0.994785 (22.827219) U:0.995462 (23.430938) V:0.995624 (23.588753) All:0.995037 (23.042841)
[out#0/null @ 00000196781b2d40] video:14697KiB audio:267500KiB subtitle:0KiB other streams:0KiB global headers:0KiB muxing overhead: unknown
frame=34203 fps=478 q=-0.0 Lsize=N/A time=00:23:46.55 bitrate=N/A speed=19.9x    
